<?xml version="1.0" encoding="UTF-8"?>
<svg id="Layer_2_copy_2" data-name="Layer 2 copy 2" xmlns="http://www.w3.org/2000/svg" viewBox="0 0 1024 1024">
  <path d="M954.57,522.99c.13,152.65-50.01,308.16-184.36,393.94-184.23,116.68-446.31,70.21-594.03-84.62-84.53-87.12-125.27-209.14-127.93-329.14C41.2,232.41,300.01,98.96,530.75,47.5c101.95-23.38,220.15-21.15,303.69,50.29,117.76,100.48,118.7,282.59,120.13,425.2h0ZM945.57,522.99c-.61-131.1-35.6-292.85-154.5-365.69-66.01-38.76-145.42-36.71-218.81-20.76-26.8,5.89-53.66,13.36-80.04,20.78-194.91,55.17-374.59,143.95-393.51,368.99-15.19,169.87,71.72,320.82,241.23,365.34,120.86,31.32,282.03,15.53,394.46-38.12,133.73-62.52,212.26-182,211.17-330.54h0Z"/>
  <path d="M647.37,512c-.7,50.07-9.79,102.23-39.84,144.04-40.61,57.62-117.58,80.1-183.93,59.8-50.63-14.96-95.3-49.45-122.77-94.36-16.55-27.3-26.81-57.92-33.3-89.09-1.38-6.17-2.34-13.05-3.03-19.36-2.84-26.94-.39-54.97,8.35-80.99,20.75-60.71,71.57-110.35,131.95-131.79,41.13-14.54,86.71-15.04,128.31-2.14,50.25,14.87,87.89,53.59,102.55,103.39,10.87,36.36,11.79,73.37,11.72,110.49h0ZM638.37,512c-.53-57.38-35.57-100.21-89.47-116.66-24.98-7.99-50.86-11.67-76.98-10.03-34.57,1.97-69.1,13.17-96.12,35.45-14.13,11.59-25.63,25.9-35.61,41.36-16.22,24.93-26.49,54.56-28.47,84.54-4.05,56.7,29.99,103.73,88.98,105.17,17.75.7,35.36-1.97,52.82-4.6,30.59-4.51,60.01-11.39,89.27-21.33,54.08-17.68,95.58-52.84,95.58-113.9h0Z"/>
</svg>