<?xml version="1.0" encoding="UTF-8"?>
<svg id="Layer_2_copy_2" data-name="Layer 2 copy 2" xmlns="http://www.w3.org/2000/svg" viewBox="0 0 2735 1024">
  <g>
    <path d="M954.57,522.99c.13,152.65-50.01,308.16-184.36,393.94-184.23,116.68-446.31,70.21-594.03-84.62-84.53-87.12-125.27-209.14-127.93-329.14C41.2,232.41,300.01,98.96,530.75,47.5c101.95-23.38,220.15-21.15,303.69,50.29,117.76,100.48,118.7,282.59,120.13,425.2h0ZM945.57,522.99c-.61-131.1-35.6-292.85-154.5-365.69-66.01-38.76-145.42-36.71-218.81-20.76-26.8,5.89-53.66,13.36-80.04,20.78-194.91,55.17-374.59,143.95-393.51,368.99-15.19,169.87,71.72,320.82,241.23,365.34,120.86,31.32,282.03,15.53,394.46-38.12,133.73-62.52,212.26-182,211.17-330.54h0Z"/>
    <path d="M647.37,512c-.7,50.07-9.79,102.23-39.84,144.04-40.61,57.62-117.58,80.1-183.93,59.8-50.63-14.96-95.3-49.45-122.77-94.36-16.55-27.3-26.81-57.92-33.3-89.09-1.38-6.17-2.34-13.05-3.03-19.36-2.84-26.94-.39-54.97,8.35-80.99,20.75-60.71,71.57-110.35,131.95-131.79,41.13-14.54,86.71-15.04,128.31-2.14,50.25,14.87,87.89,53.59,102.55,103.39,10.87,36.36,11.79,73.37,11.72,110.49h0ZM638.37,512c-.53-57.38-35.57-100.21-89.47-116.66-24.98-7.99-50.86-11.67-76.98-10.03-34.57,1.97-69.1,13.17-96.12,35.45-14.13,11.59-25.63,25.9-35.61,41.36-16.22,24.93-26.49,54.56-28.47,84.54-4.05,56.7,29.99,103.73,88.98,105.17,17.75.7,35.36-1.97,52.82-4.6,30.59-4.51,60.01-11.39,89.27-21.33,54.08-17.68,95.58-52.84,95.58-113.9h0Z"/>
  </g>
  <g>
    <g>
      <path d="M1420.5,276.85c-20.27,53.88-40.3,107.54-60.1,160.96-32.24,83.36-58.03,123.2-77.37,119.51-22.57-4.14-43.29-58.03-62.17-161.65l-13.12-73.22c-6.91-37.3-12.9-55.95-17.96-55.95-1.38,0-2.54,1.38-3.45,4.14-9.22,25.33-18.2,58.26-26.94,98.78-7.37,33.62-14.51,67.01-21.41,100.17-23.95,102.7-46.28,151.98-67.01,147.83l-9.67-3.45c-8.75-5.06-13.13-18.19-13.13-39.38,0-34.54,11.74-92.1,35.23-172.7,14.27-47.89,28.78-96.02,43.52-144.38,21.18-86.11,42.83-129.18,64.93-129.18,27.17,0,49.74,52.74,67.7,158.19,4.15,23.95,11.28,59.65,21.42,107.07,5.98,22.57,11.05,32.71,15.2,30.4,6.91-3.22,17.27-29.7,31.09-79.44,19.34-69.08,32.92-113.98,40.76-134.71,17.96-47.43,35.46-71.15,52.5-71.15,29.01.46,61.93,83.13,98.78,248,20.26,90.27,30.39,155.67,30.39,196.19,0,31.32-5.99,46.97-17.96,46.97-23.03,0-45.37-57.79-67.01-173.39-7.84-41.45-14.05-71.61-18.65-90.49-7.84-34.08-16.35-63.78-25.56-89.11Z"/>
      <path d="M1714.09,151.82c0,9.67-3.92,18.31-11.74,25.9-7.84,7.6-17.04,11.4-27.63,11.4-11.52,0-21.42-5.29-29.7-15.89-5.99-7.83-8.98-15.2-8.98-22.11,0-8.29,4.83-16.69,14.51-25.21,9.67-8.52,19.79-12.78,30.39-12.78,11.51,0,20.49,5.76,26.94,17.27,4.14,7.37,6.22,14.51,6.22,21.42ZM1712.02,343.17c0,22.57-.81,57.23-2.42,103.97-1.62,46.75-2.42,82.32-2.42,106.73.45,46.97-10.14,70.46-31.78,70.46s-31.09-37.53-28.32-112.6c2.76-69.08,3.22-131.25,1.38-186.52-1.85-51.57,8.98-75.3,32.47-71.15,20.72,3.69,31.09,33.4,31.09,89.11Z"/>
      <path d="M2037.39,613.96c-22.11-5.98-36.39-33.85-42.83-83.59-3.23-44.66-6.46-89.11-9.67-133.32-4.61-46.51-15.2-69.77-31.78-69.77-5.53,0-11.98,2.07-19.34,6.22-32.71,20.72-52.96,73.23-60.79,157.5-7.84,84.28-21.65,124.81-41.45,121.58-20.27-3.22-29.94-35.46-29.01-96.71.45-23.94-2.19-58.48-7.94-103.62-5.76-45.13-8.63-78.51-8.63-100.17,0-35.46,11.28-55.03,33.85-58.72h2.07c15.2,0,23.49,35.23,24.87,105.69,28.08-68.62,61.71-102.93,100.86-102.93,24.41,0,46.05,13.36,64.94,40.07,19.34,28.1,32,64.48,37.99,109.15,26.25-96.71,67.23-144.38,122.96-143,44.67.93,77.37,41.69,98.09,122.27,14.27,53.88,21.42,112.37,21.42,175.46,0,41.45-7.37,62.41-22.11,62.86h-1.38c-17.51,0-29.48-23.71-35.92-71.15-5.07-46.05-10.13-92.1-15.2-138.16-8.29-51.12-23.26-78.51-44.9-82.21-23.49-3.68-42.38,17.73-56.65,64.24-10.6,45.14-21.19,90.04-31.78,134.71-13.36,51.12-29.25,78.99-47.67,83.59Z"/>
      <path d="M2409.73,442.65c-1.85,40.99,8.29,72.77,30.4,95.33,20.26,20.72,47.43,31.09,81.51,31.09,27.17,0,55.03-6.67,83.59-20.03,24.41-11.51,43.28-17.27,56.65-17.27,17.03,0,26.7,8.06,29.01,24.18v2.07c0,14.74-22.8,32.01-68.39,51.81-26.25,11.05-54.57,16.58-84.97,16.58-32.71,0-65.86-6.44-99.47-19.34-58.03-22.56-87.04-72.3-87.04-149.21,0-12.43.69-25.79,2.07-40.07,6.44-56.65,27.39-100.86,62.86-132.63,31.31-27.63,68.15-41.45,110.53-41.45,39.6,0,73.22,11.98,100.86,35.92,29.47,25.33,44.21,58.96,44.21,100.86,0,22.11-7.25,41.1-21.76,56.99-14.51,15.89-43.87,23.83-88.08,23.83-38.68,0-89.35-6.22-151.98-18.65ZM2419.4,381.17c56.18,11.05,99.48,16.58,129.87,16.58,50.65,0,72.99-12.89,67.01-38.69-5.07-19.34-15.66-34.3-31.78-44.9-16.13-10.59-34.54-15.89-55.26-15.89-23.95,0-45.83,6.68-65.63,20.03-21.65,15.2-36.39,36.16-44.21,62.86Z"/>
    </g>
    <g>
      <path d="M1089.48,783.72c10.29-1.5,20.48-3.11,30.56-4.83,16.94-2.57,30.56-3.86,40.86-3.86,20.37,0,30.67,4.94,30.88,14.8,0,13.08-33.25,22.2-99.73,27.34,1.07,13.08,1.61,23.38,1.61,30.88,0,28.1-5.58,42.68-16.73,43.75h-.64c-9.44,0-14.8-17.05-16.09-51.15-1.5-40.32-4.83-78.71-9.97-115.17-2.36-16.94-3.54-29.7-3.54-38.28,0-14.37,2.46-22.62,7.4-24.77,2.57-1.07,23.48-2.14,62.73-3.22,34.31-.85,58.12-1.29,71.42-1.29,18.66.22,27.99,4.29,27.99,12.22,0,9.44-10.73,15.66-32.17,18.66-5.58.86-26.06,2.04-61.45,3.54-23.38.86-36.25,3.54-38.6,8.04-.64,1.29-.96,4.29-.96,9.01,0,10.94,2.14,35.71,6.43,74.31Z"/>
      <path d="M1276.71,799.48c24.66-54.9,44.61-82.36,59.84-82.36h1.93c5.36.86,11.15,3.43,17.37,7.72,6.43,4.5,9.65,9.01,9.65,13.51v1.29c-1.29,9.01-4.83,13.51-10.62,13.51-2.57,0-5.47-1.07-8.69-3.22-1.5-.85-3.01-1.29-4.5-1.29-7.72,0-17.91,11.69-30.56,35.07-12.87,24.02-19.3,46.11-19.3,66.27,0,2.36.16,5.69.48,9.97.32,4.29.48,7.62.48,9.97,0,14.8-5.26,22.2-15.76,22.2-12.87,0-18.98-10.94-18.34-32.81.21-15.01-2.04-30.4-6.76-46.17-4.72-15.76-7.08-25.68-7.08-29.76,0-4.5,1.61-8.95,4.83-13.35,3.22-4.39,6.65-6.59,10.29-6.59,9.01,0,14.58,12.01,16.73,36.03Z"/>
      <path d="M1506.73,885.7c-10.94,3.86-24.99,5.79-42.14,5.79-21.02,0-38.5-3.11-52.44-9.33-16.73-7.5-25.09-18.55-25.09-33.14,0-21.44,9.22-37,27.67-46.65,10.08-5.36,27.67-10.08,52.76-14.15,19.95-3.22,30.77-7.4,32.49-12.55.21-1.07.32-2.25.32-3.54,0-6-4.29-13.4-12.87-22.2-5.79-5.79-12.34-8.69-19.62-8.69-6.43,0-15.66,2.79-27.67,8.36-12.01,5.58-20.38,8.36-25.09,8.36-3.22,0-6.01-.75-8.36-2.25-4.29-2.36-6.43-5.25-6.43-8.69,0-2.57,1.07-5.57,3.22-9.01,4.71-7.93,18.44-14.69,41.18-20.27,8.15-1.93,15.76-2.9,22.84-2.9,46.75,0,70.13,44.07,70.13,132.22,0,28.31-4.29,42.79-12.87,43.43-1.93.22-3.75.32-5.47.32-7.72,0-11.9-1.71-12.55-5.15ZM1504.48,863.18c2.57-14.16,3.86-24.77,3.86-31.85,0-14.37-6.76-21.55-20.27-21.55-7.29,0-18.55,1.72-33.78,5.15-25.09,5.58-37.64,15.34-37.64,29.28,0,1.93.21,3.86.64,5.79,2.36,11.58,16.51,17.37,42.46,17.37,11.79,0,26.7-1.39,44.72-4.18Z"/>
      <path d="M1680.13,886.98c-10.29-2.78-16.94-15.76-19.95-38.93-1.5-20.8-3.01-41.5-4.5-62.09-2.15-21.66-7.08-32.49-14.8-32.49-2.57,0-5.58.96-9.01,2.89-15.23,9.65-24.67,34.1-28.31,73.35-3.65,39.25-10.08,58.12-19.3,56.62-9.44-1.5-13.94-16.51-13.51-45.04.21-11.15-1.02-27.23-3.7-48.26-2.68-21.02-4.02-36.56-4.02-46.65,0-16.51,5.25-25.63,15.76-27.34h.97c7.08,0,10.94,16.41,11.58,49.22,13.08-31.95,28.74-47.93,46.97-47.93,11.37,0,21.44,6.22,30.24,18.66,9.01,13.08,14.9,30.03,17.69,50.83,12.23-45.04,31.31-67.24,57.26-66.59,20.8.43,36.03,19.41,45.68,56.94,6.64,25.09,9.97,52.33,9.97,81.71,0,19.3-3.43,29.06-10.29,29.28h-.64c-8.15,0-13.73-11.04-16.73-33.14-2.36-21.44-4.72-42.89-7.08-64.34-3.86-23.81-10.83-36.56-20.91-38.28-10.94-1.71-19.73,8.26-26.38,29.92-4.94,21.02-9.87,41.93-14.8,62.73-6.22,23.81-13.62,36.78-22.2,38.93Z"/>
      <path d="M1853.53,807.2c-.86,19.09,3.86,33.89,14.16,44.39,9.43,9.65,22.09,14.48,37.96,14.48,12.65,0,25.63-3.11,38.93-9.33,11.37-5.36,20.16-8.04,26.38-8.04,7.93,0,12.44,3.75,13.51,11.26v.97c0,6.87-10.62,14.91-31.85,24.13-12.22,5.15-25.41,7.72-39.57,7.72-15.23,0-30.67-3-46.33-9.01-27.02-10.51-40.54-33.67-40.54-69.49,0-5.79.32-12.01.96-18.66,3-26.38,12.76-46.97,29.28-61.77,14.58-12.87,31.74-19.3,51.47-19.3,18.44,0,34.1,5.58,46.97,16.73,13.72,11.8,20.59,27.46,20.59,46.97,0,10.29-3.38,19.14-10.13,26.54-6.75,7.4-20.43,11.1-41.02,11.1-18.02,0-41.61-2.9-70.78-8.69ZM1858.03,778.57c26.16,5.15,46.33,7.72,60.48,7.72,23.59,0,33.99-6,31.21-18.02-2.36-9.01-7.29-15.97-14.8-20.91-7.51-4.93-16.09-7.4-25.74-7.4-11.15,0-21.34,3.11-30.56,9.33-10.08,7.08-16.94,16.84-20.59,29.28Z"/>
      <path d="M2110.25,792.4c-6.87,17.8-13.73,35.5-20.59,53.08-11.15,26.81-19.95,40.21-26.38,40.21-11.58-.64-20.91-15.01-27.99-43.11l-.64-2.89c-1.29-4.93-7.29-22.3-18.01-52.12-9.87-27.45-14.8-42.68-14.8-45.68,0-6.64,3.64-10.94,10.94-12.87.64-.21,1.18-.32,1.61-.32,12.44,0,28.74,36.46,48.9,109.38,9.44-30.02,17.58-51.42,24.45-64.18,6.86-12.76,13.72-19.14,20.59-19.14s16.41,8.26,28.63,24.77l41.18,55.98c8.79-74.2,17.91-111.31,27.35-111.31h.32c6.22.43,9.33,8.69,9.33,24.77,0,13.08-2.15,31.85-6.43,56.3-2.36,13.73-4.83,27.56-7.4,41.5-2.36,19.09-7.19,28.63-14.48,28.63-11.15,0-36.67-27.67-76.57-83Z"/>
      <path d="M2401.39,796.26c0,30.67-9.22,54.69-27.67,72.06-16.08,15.23-35.82,22.84-59.19,22.84-19.95,0-36.79-5.58-50.51-16.73-15.01-11.79-22.52-27.23-22.52-46.33,0-34.31,9.01-61.01,27.02-80.1,15.65-16.94,35.07-25.41,58.23-25.41,20.16,0,37.32,6.43,51.47,19.3,15.44,13.94,23.16,32.07,23.16,54.37ZM2373.72,809.45c.64-21.23-1.82-35.44-7.4-42.63-5.58-7.18-18.23-11.42-37.96-12.71-31.74-2.14-50.4,14.69-55.98,50.51-.86,5.15-1.29,9.87-1.29,14.16,0,27.24,15.55,41.07,46.65,41.5,36.24.64,54.9-16.3,55.98-50.83Z"/>
      <path d="M2457.05,799.48c24.66-54.9,44.61-82.36,59.84-82.36h1.93c5.36.86,11.15,3.43,17.37,7.72,6.43,4.5,9.65,9.01,9.65,13.51v1.29c-1.29,9.01-4.83,13.51-10.62,13.51-2.57,0-5.47-1.07-8.69-3.22-1.5-.85-3.01-1.29-4.5-1.29-7.72,0-17.91,11.69-30.56,35.07-12.87,24.02-19.3,46.11-19.3,66.27,0,2.36.16,5.69.48,9.97.32,4.29.48,7.62.48,9.97,0,14.8-5.26,22.2-15.76,22.2-12.87,0-18.98-10.94-18.34-32.81.21-15.01-2.04-30.4-6.76-46.17-4.72-15.76-7.08-25.68-7.08-29.76,0-4.5,1.61-8.95,4.83-13.35,3.22-4.39,6.65-6.59,10.29-6.59,9.01,0,14.58,12.01,16.73,36.03Z"/>
      <path d="M2603.1,859.96c.64,3.01.96,6.01.96,9.01,0,14.8-6.11,22.31-18.34,22.52h-.32c-9.87,0-14.8-10.08-14.8-30.24,0-3.43.21-7.83.64-13.19,1.29-18.66,1.71-41.93,1.29-69.81l-1.29-69.81c0-33.67,4.29-50.51,12.87-50.51,11.15.43,16.73,19.3,16.73,56.62,0,7.08-.32,16.62-.96,28.63-1.5,27.02-2.04,49.22-1.61,66.59,17.8-10.29,30.56-17.8,38.28-22.52,13.94-9.01,25.74-17.9,35.39-26.7,6.43-5.57,11.26-8.36,14.48-8.36,2.57,0,4.77,1.34,6.6,4.02,1.82,2.68,2.73,5.42,2.73,8.2,0,9.01-10.73,21.55-32.17,37.64-14.16,10.51-28.31,20.91-42.46,31.21,9.65,4.72,25.2,10.29,46.65,16.73,28.31,8.58,42.46,18.02,42.46,28.31,0,.86-.11,1.72-.32,2.57-1.5,6.87-5.15,10.29-10.94,10.29-28.53-9.65-60.48-20.05-95.87-31.21Z"/>
    </g>
  </g>
</svg>